<?xml version="1.0" encoding="UTF-8" standalone="no"?>
<!-- Created with Inkscape (http://www.inkscape.org/) -->

<svg
   width="512"
   height="512"
   viewBox="0 0 512 512"
   version="1.1"
   id="svg5"
   inkscape:version="1.1.1 (3bf5ae0d25, 2021-09-20, custom)"
   sodipodi:docname="NGT-Logo.svg"
   inkscape:export-filename="/home/franz/Dokumente/Inkscape/NGT/NGT-Icon.png"
   inkscape:export-xdpi="96"
   inkscape:export-ydpi="96"
   xmlns:inkscape="http://www.inkscape.org/namespaces/inkscape"
   xmlns:sodipodi="http://sodipodi.sourceforge.net/DTD/sodipodi-0.dtd"
   xmlns="http://www.w3.org/2000/svg"
   xmlns:svg="http://www.w3.org/2000/svg">
  <sodipodi:namedview
     id="namedview7"
     pagecolor="#505050"
     bordercolor="#eeeeee"
     borderopacity="1"
     inkscape:pageshadow="0"
     inkscape:pageopacity="0"
     inkscape:pagecheckerboard="0"
     inkscape:document-units="px"
     showgrid="false"
     inkscape:zoom="2"
     inkscape:cx="286.75"
     inkscape:cy="307.75"
     inkscape:window-width="3840"
     inkscape:window-height="2015"
     inkscape:window-x="2880"
     inkscape:window-y="48"
     inkscape:window-maximized="1"
     inkscape:current-layer="layer6"
     inkscape:snap-nodes="true"
     inkscape:snap-intersection-paths="true"
     inkscape:snap-smooth-nodes="true"
     inkscape:snap-midpoints="true"
     inkscape:snap-global="true"
     inkscape:snap-grids="true"
     inkscape:snap-page="true"
     showguides="false" />
  <defs
     id="defs2">
    <inkscape:path-effect
       effect="bspline"
       id="path-effect4994"
       is_visible="true"
       lpeversion="1"
       weight="33.333333"
       steps="2"
       helper_size="0"
       apply_no_weight="true"
       apply_with_weight="true"
       only_selected="false" />
    <linearGradient
       id="linearGradient16295"
       inkscape:swatch="solid">
      <stop
         style="stop-color:#025050;stop-opacity:1;"
         offset="0"
         id="stop16293" />
    </linearGradient>
    <marker
       style="overflow:visible"
       id="DotL"
       refX="0.0"
       refY="0.0"
       orient="auto"
       inkscape:stockid="DotL"
       inkscape:isstock="true">
      <path
         transform="scale(0.8) translate(7.4, 1)"
         style="fill-rule:evenodd;fill:context-stroke;stroke:context-stroke;stroke-width:1.0pt"
         d="M -2.5,-1.0 C -2.5,1.7600000 -4.7400000,4.0 -7.5,4.0 C -10.260000,4.0 -12.5,1.7600000 -12.5,-1.0 C -12.5,-3.7600000 -10.260000,-6.0 -7.5,-6.0 C -4.7400000,-6.0 -2.5,-3.7600000 -2.5,-1.0 z "
         id="path8543" />
    </marker>
    <filter
       style="color-interpolation-filters:sRGB;"
       inkscape:label="Drop Shadow"
       id="filter37211"
       x="-0.033810746"
       y="-0.046242485"
       width="1.0635479"
       height="1.111489">
      <feFlood
         flood-opacity="0.501961"
         flood-color="rgb(0,0,0)"
         result="flood"
         id="feFlood37201" />
      <feComposite
         in="flood"
         in2="SourceGraphic"
         operator="in"
         result="composite1"
         id="feComposite37203" />
      <feGaussianBlur
         in="composite1"
         stdDeviation="4"
         result="blur"
         id="feGaussianBlur37205" />
      <feOffset
         dx="-2"
         dy="6"
         result="offset"
         id="feOffset37207" />
      <feComposite
         in="SourceGraphic"
         in2="offset"
         operator="over"
         result="composite2"
         id="feComposite37209" />
    </filter>
  </defs>
  <g
     inkscape:groupmode="layer"
     id="layer5"
     inkscape:label="Website"
     style="display:none">
    <path
       style="fill:none;stroke:#000000;stroke-width:15;stroke-linecap:round;stroke-linejoin:round;stroke-miterlimit:4;stroke-dasharray:none;stroke-opacity:1;paint-order:normal"
       d="M 116.35009,91.83141 V 51.83019 L 393.31348,25.58564 v 39.996452"
       id="path32701"
       sodipodi:nodetypes="cc" />
    <path
       style="display:inline;fill:none;stroke:#000000;stroke-width:15;stroke-linecap:round;stroke-linejoin:round;stroke-miterlimit:4;stroke-dasharray:none;stroke-opacity:1;paint-order:normal"
       d="m 393.31348,421.58442 v 40.00122 l -276.96339,26.24455 v -39.99645"
       id="path34591"
       sodipodi:nodetypes="cc" />
  </g>
  <g
     inkscape:groupmode="layer"
     id="layer6"
     inkscape:label="Token"
     style="display:none">
    <circle
       style="fill:#4c67ae;fill-opacity:1;stroke:none;stroke-width:15;stroke-linecap:round;stroke-linejoin:round;stroke-miterlimit:4;stroke-dasharray:none;stroke-dashoffset:61.5;stroke-opacity:1"
       id="path6711"
       cx="256"
       cy="256"
       r="256" />
    <circle
       style="fill:none;fill-opacity:1;stroke:none;stroke-width:14.403;stroke-linecap:round;stroke-linejoin:round;stroke-miterlimit:4;stroke-dasharray:none;stroke-dashoffset:47.53"
       id="path1324"
       cx="256"
       cy="256"
       r="256" />
    <path
       id="path1859"
       style="color:#000000;fill:#000000;stroke-width:1.00948;stroke-linecap:round;stroke-linejoin:round;stroke-dasharray:181.705, 181.705;stroke-dashoffset:62.0826;-inkscape-stroke:none"
       d="M 256.80892,0.00126283 C 247.79126,-0.02689315 238.77124,0.41577735 229.7972,1.3287974 207.86953,3.5595174 186.224,8.644306 165.55696,16.475024 a 7.5,7.6427743 0 0 0 -4.41601,9.826139 7.5,7.6427743 0 0 0 9.64453,4.500082 c 19.44781,-7.368756 39.84588,-12.161172 60.50195,-14.262532 16.92439,-1.721888 34.02893,-1.670144 50.94141,0.159225 19.37352,2.095072 38.50386,6.560953 56.82226,13.297234 l 1.38672,0.515488 1.35742,0.5135 a 7.5,7.6427743 0 0 0 9.64063,-4.508042 7.5,7.6427743 0 0 0 -4.42383,-9.824151 l -1.37695,-0.521459 a 7.50075,7.6435386 0 0 0 -0.043,-0.01593 l -1.42774,-0.52942 a 7.50075,7.6435386 0 0 0 -0.0215,-0.008 C 324.67957,8.4598696 304.37785,3.7221068 283.81087,1.4979728 274.84199,0.52783775 265.82658,0.02941372 256.80892,0.00126283 Z" />
    <path
       id="path2716"
       style="color:#000000;fill:#000000;stroke-width:1.00948;stroke-linecap:round;stroke-linejoin:round;stroke-dasharray:181.705, 181.705;stroke-dashoffset:62.0826;-inkscape-stroke:none"
       d="m 256.80892,511.99872 c -9.01766,0.0282 -18.03768,-0.41452 -27.01172,-1.32754 -21.92767,-2.23072 -43.5732,-7.31551 -64.24024,-15.14622 a 7.5,7.6427743 0 0 1 -4.41601,-9.82614 7.5,7.6427743 0 0 1 9.64453,-4.50008 c 19.44781,7.36875 39.84588,12.16117 60.50195,14.26253 16.92439,1.72189 34.02893,1.67014 50.94141,-0.15923 19.37352,-2.09507 38.50386,-6.56095 56.82226,-13.29723 l 1.38672,-0.51549 1.35742,-0.5135 a 7.5,7.6427743 0 0 1 9.64063,4.50804 7.5,7.6427743 0 0 1 -4.42383,9.82415 l -1.37695,0.52146 a 7.50075,7.6435386 0 0 1 -0.043,0.0159 l -1.42774,0.52942 a 7.50075,7.6435386 0 0 1 -0.0215,0.008 c -19.46328,7.15729 -39.765,11.89505 -60.33198,14.11919 -8.96888,0.97013 -17.98429,1.46856 -27.00195,1.49671 z" />
  </g>
  <g
     inkscape:groupmode="layer"
     id="layer8"
     inkscape:label="Terminal"
     style="display:none">
    <path
       style="fill:none;stroke:#000000;stroke-width:15;stroke-linecap:round;stroke-linejoin:round;stroke-miterlimit:4;stroke-dasharray:none;stroke-opacity:1"
       d="M 147.44726,60 H 364.55274 L 329.56042,23.364761"
       id="path6000"
       sodipodi:nodetypes="ccc" />
    <path
       style="fill:none;stroke:#000000;stroke-width:15;stroke-linecap:round;stroke-linejoin:round;stroke-miterlimit:4;stroke-dasharray:none;stroke-opacity:1"
       d="M 364.55174,451.36476 H 147.44626 L 182.43858,488"
       id="path6607"
       sodipodi:nodetypes="ccc" />
  </g>
  <g
     inkscape:groupmode="layer"
     id="layer7"
     inkscape:label="ShadowOutlines"
     style="display:inline">
    <path
       id="path34419"
       style="fill:none;fill-opacity:1;stroke:#000000;stroke-width:10;stroke-linecap:round;stroke-linejoin:round;stroke-miterlimit:4;stroke-dasharray:none;stroke-opacity:1;paint-order:normal;filter:url(#filter37211)"
       d="M 10.350094,259.83019 108.02643,414.02901 442.13338,371.01886 501.31348,225.58564 211.49022,98.30376 Z" />
  </g>
  <g
     inkscape:groupmode="layer"
     id="layer2"
     inkscape:label="Color">
    <path
       style="fill:#af8317;fill-opacity:1;stroke:none;stroke-width:0;stroke-linecap:butt;stroke-linejoin:miter;stroke-miterlimit:4;stroke-dasharray:none;stroke-opacity:1"
       d="M 10.350094,259.83019 244.2745,261.74795 108.02643,414.02901 Z"
       id="path9175"
       sodipodi:nodetypes="cccc" />
    <path
       style="fill:#c6961e;fill-opacity:1;stroke:none;stroke-width:0;stroke-linecap:butt;stroke-linejoin:miter;stroke-miterlimit:4;stroke-dasharray:none;stroke-opacity:1"
       d="M 244.2745,261.74795 442.13338,371.01886 108.02643,414.02901 244.2745,261.74795"
       id="path10600"
       sodipodi:nodetypes="cccc" />
    <path
       style="fill:#f1b422;fill-opacity:1;stroke:none;stroke-width:0;stroke-linecap:butt;stroke-linejoin:miter;stroke-miterlimit:4;stroke-dasharray:none;stroke-opacity:1"
       d="M 442.13338,371.01886 244.2745,261.74795 501.31348,225.58564"
       id="path10979"
       sodipodi:nodetypes="ccc" />
    <path
       style="fill:#ffcf48;fill-opacity:1;stroke:none;stroke-width:0;stroke-linecap:butt;stroke-linejoin:miter;stroke-miterlimit:4;stroke-dasharray:none;stroke-opacity:1"
       d="M 211.49022,98.30376 501.31348,225.58564 244.2745,261.74795 Z"
       id="path11047"
       sodipodi:nodetypes="cccc" />
    <path
       style="fill:#f1b422;fill-opacity:1;stroke:none;stroke-width:0;stroke-linecap:butt;stroke-linejoin:miter;stroke-miterlimit:4;stroke-dasharray:none;stroke-opacity:1"
       d="M 10.350094,259.83019 244.2745,261.74795 211.49022,98.30376 Z"
       id="path11115"
       sodipodi:nodetypes="cccc" />
  </g>
  <g
     inkscape:groupmode="layer"
     id="layer3"
     inkscape:label="MiddleLines"
     style="display:inline">
    <path
       id="path5408"
       style="fill:none;stroke:#000000;stroke-width:7;stroke-linecap:round;stroke-linejoin:miter;stroke-miterlimit:4;stroke-dasharray:0.7, 0.7;stroke-dashoffset:20.3001;stroke-opacity:1"
       d="M 244.2745,261.74795 10.350094,259.83019 M 501.31348,225.58564 244.2745,261.74795 442.13338,371.01886 M 211.49022,98.30376 244.2745,261.74795 108.02643,414.02901"
       sodipodi:nodetypes="cccccccc" />
  </g>
  <g
     inkscape:label="Outlines"
     inkscape:groupmode="layer"
     id="layer1"
     style="display:inline">
    <path
       id="path2455"
       style="fill:none;fill-opacity:1;stroke:#000000;stroke-width:10;stroke-linecap:round;stroke-linejoin:round;stroke-miterlimit:4;stroke-dasharray:none;stroke-opacity:1;paint-order:normal"
       d="M 10.350094,259.83019 108.02643,414.02901 442.13338,371.01886 501.31348,225.58564 211.49022,98.30376 Z" />
  </g>
</svg>